<?xml version="1.0" encoding="UTF-8"?>
<svg width="26px" height="18px" viewBox="0 0 26 18" version="1.1" xmlns="http://www.w3.org/2000/svg" xmlns:xlink="http://www.w3.org/1999/xlink">
    <!-- Generator: Sketch 52.5 (67469) - http://www.bohemiancoding.com/sketch -->
    <title>arrow slider</title>
    <desc>Created with Sketch.</desc>
    <g id="arrow-slider" stroke="none" stroke-width="1" fill="none" fill-rule="evenodd">
        <path d="M25.5692212,8.17753841 C25.6180063,8.2113075 25.6642128,8.2497637 25.7071398,8.29279631 C25.7120008,8.29764533 25.7168034,8.3025362 25.7215475,8.3074679 C25.7524606,8.33983261 25.7816064,8.37462565 25.8086664,8.41183291 C25.8467584,8.46420911 25.8790256,8.51904349 25.9055901,8.5755631 C25.9678272,8.70867459 25.9998805,8.85384802 26,9.00000003 C25.9998805,9.14615199 25.9678272,9.29132542 25.9055901,9.4244369 C25.8790256,9.48095651 25.8467584,9.53579089 25.8086664,9.58816709 C25.7774571,9.63107971 25.7434732,9.67078095 25.7071398,9.70720369 C25.7022973,9.71203429 25.6973968,9.71682335 25.6924385,9.72156989 C25.6537409,9.75886453 25.6124955,9.79250706 25.5692212,9.82246159 L14.5881323,17.808667 C14.1414809,18.1335028 13.5160657,18.0347535 13.1912283,17.5881044 C12.8663909,17.1414553 12.9651407,16.5160433 13.4117921,16.1912075 L23.2997533,9 L13.4117921,1.80879245 C12.9651407,1.48395674 12.8663909,0.858544725 13.1912283,0.41189562 C13.5160657,-0.0347534848 14.1414809,-0.13350275 14.5881323,0.191332962 L25.5692212,8.17753841 Z M16.9999541,8.00000784 C17.5522374,8.00000784 17.9999514,8.44771958 17.9999514,9 C17.9999514,9.55228042 17.5522374,9.99999216 16.9999541,9.99999216 L0.9999973,9.99999216 C0.447714041,9.99999216 0,9.55228042 0,9 C0,8.44771958 0.447714041,8.00000784 0.9999973,8.00000784 L16.9999541,8.00000784 Z" id="Combined-Shape" fill="#5A58A7" fill-rule="nonzero"></path>
    </g>
</svg>