<?xml version="1.0" encoding="UTF-8"?>
<svg width="48px" height="48px" viewBox="0 0 48 48" version="1.1" xmlns="http://www.w3.org/2000/svg" xmlns:xlink="http://www.w3.org/1999/xlink">
    <!-- Generator: Sketch 53.2 (72643) - https://sketchapp.com -->
    <title>Icons /black link Copy</title>
    <desc>Created with Sketch.</desc>
    <g id="Icons-/black-link-Copy" stroke="none" stroke-width="1" fill="none" fill-rule="evenodd" opacity="0.300000012">
        <path d="M16,23 L25,23 C25.5522847,23 26,23.4477153 26,24 C26,24.5522847 25.5522847,25 25,25 L16,25 C15.4477153,25 15,24.5522847 15,24 C15,23.4477153 15.4477153,23 16,23 Z M26.2930077,19.7072212 C25.9024202,19.3167602 25.9023177,18.6835952 26.2927788,18.2930077 C26.6832398,17.9024202 27.3164048,17.9023177 27.7069923,18.2927788 L32.7069923,23.2911601 C33.0975798,23.6816211 33.0976823,24.3147861 32.7072212,24.7053737 L27.7072212,29.7069923 C27.3167601,30.0975798 26.6835952,30.0976823 26.2930077,29.7072212 C25.9024202,29.3167601 25.9023177,28.6835952 26.2927788,28.2930077 L30.5857864,23.9986102 L26.2930077,19.7072212 Z" id="Combined-Shape" fill="#5A58A7" fill-rule="nonzero"></path>
    </g>
</svg>