<?xml version="1.0" encoding="UTF-8"?>
<svg width="48px" height="48px" viewBox="0 0 48 48" version="1.1" xmlns="http://www.w3.org/2000/svg" xmlns:xlink="http://www.w3.org/1999/xlink">
    <!-- Generator: Sketch 53.2 (72643) - https://sketchapp.com -->
    <title>Icons / icon_22</title>
    <desc>Created with Sketch.</desc>
    <g id="Icons-/-icon_22" stroke="none" stroke-width="1" fill="none" fill-rule="evenodd">
        <path d="M34,32 L37,32 C37.5522847,32 38,32.4477153 38,33 C38,33.5522847 37.5522847,34 37,34 L11,34 C10.4477153,34 10,33.5522847 10,33 C10,32.4477153 10.4477153,32 11,32 L14,32 L14,22 C14,21.4477153 14.4477153,21 15,21 C15.5522847,21 16,21.4477153 16,22 L16,32 L20,32 L20,22 C20,21.4477153 20.4477153,21 21,21 C21.5522847,21 22,21.4477153 22,22 L22,32 L26,32 L26,22 C26,21.4477153 26.4477153,21 27,21 C27.5522847,21 28,21.4477153 28,22 L28,32 L32,32 L32,22 C32,21.4477153 32.4477153,21 33,21 C33.5522847,21 34,21.4477153 34,22 L34,32 Z M24.001545,10.2162606 L14.2015925,17 L33.7990618,17 L24.001545,10.2162606 Z M37,19 L11,19 C10.0196,19 9.62472816,17.7357813 10.4308378,17.1777747 L23.4324536,8.1777747 C23.7749121,7.94071754 24.2284427,7.94074392 24.5708736,8.17784092 L37.5692578,17.1778409 C38.3752534,17.7359073 37.9803403,19 37,19 Z M41,36 C41.5522847,36 42,36.4477153 42,37 C42,37.5522847 41.5522847,38 41,38 L7,38 C6.44771525,38 6,37.5522847 6,37 C6,36.4477153 6.44771525,36 7,36 L41,36 Z" id="Combined-Shape" fill="#5A58A7" fill-rule="nonzero"></path>
    </g>
</svg>