<?xml version="1.0" encoding="UTF-8"?>
<svg width="48px" height="48px" viewBox="0 0 48 48" version="1.1" xmlns="http://www.w3.org/2000/svg" xmlns:xlink="http://www.w3.org/1999/xlink">
    <!-- Generator: Sketch 53.2 (72643) - https://sketchapp.com -->
    <title>Icons / icon_20</title>
    <desc>Created with Sketch.</desc>
    <g id="Icons-/-icon_20" stroke="none" stroke-width="1" fill="none" fill-rule="evenodd">
        <path d="M22,17 L22,12 C22,11.4477153 22.4477153,11 23,11 L25.621124,11 C26.954047,11 28,12.1376798 28,13.5005272 C28,14.8625812 26.9537791,16 25.621124,16 L24,16 L24,17 L26,17 C26.5522847,17 27,17.4477153 27,18 C27,18.5522847 26.5522847,19 26,19 L24,19 L24,20 C24,20.5522847 23.5522847,21 23,21 C22.4477153,21 22,20.5522847 22,20 L22,19 L21,19 C20.4477153,19 20,18.5522847 20,18 C20,17.4477153 20.4477153,17 21,17 L22,17 Z M24,13 L24,14 L25.621124,14 C25.8101562,14 26,13.7936077 26,13.5005272 C26,13.2064577 25.8101882,13 25.621124,13 L24,13 Z M33.5970286,28.573678 C34.8052503,27.7333793 36.2954609,27.6694385 37.3094654,28.6759096 C38.3989087,29.757259 38.4337071,31.1440183 37.2641085,32.1432868 L31.265952,37.2615662 C30.6790384,37.763511 29.7421828,37.9934302 28.658,37.9885909 L21.209,37.9885909 C18.99934,37.9885909 17.4145529,38.927994 15.540727,40.7479843 C15.1445531,41.132776 14.5114554,41.1235489 14.1266637,40.727375 C13.7418719,40.3312011 13.751099,39.6981033 14.147273,39.3133116 C16.3624013,37.1618246 18.3416641,35.9885909 21.209,35.9885909 L28.6624543,35.9886008 C29.3166908,35.991515 29.8175812,35.8685886 29.9668915,35.7408951 L35.9654252,30.6222932 C36.1990249,30.4227129 36.1982257,30.3908657 35.9005346,30.0953863 C35.6608297,29.8574622 35.2271919,29.8760684 34.7146804,30.2319893 L29.2046804,33.8293384 C29.0421079,33.9354782 28.8521533,33.9919971 28.658,33.9919971 L22.565,33.9919971 C20.1442697,33.9919971 18.2667023,31.9619827 19.6454552,29.4994658 C19.8222958,29.1836203 20.156018,28.988 20.518,28.988 L24.945,28.988 C25.5556116,28.988 25.728,28.8556618 25.728,28.5352699 C25.728,28.180874 25.5226866,28.0116479 24.945,28.0116479 L19.443,28.0116479 L19.3419033,28.0065245 C19.3499524,28.0071816 19.3308213,28.0056763 19.3064964,28.0043575 C19.029157,27.9893209 18.6523217,28.0063982 18.2158225,28.0828412 C17.5663762,28.1965772 16.9282919,28.4208667 16.335106,28.7797331 C15.7662173,29.1239002 15.2576076,29.5811824 14.8210509,30.1695583 C13.8886498,31.4260654 12.9404298,32.7614763 12.026826,34.0886438 C11.7069789,34.553277 11.4143993,34.9835557 11.1553281,35.3686566 C11.0003045,35.5990941 10.8912071,35.7627968 10.8342624,35.8489586 C10.5297504,36.309709 9.90938271,36.4363652 9.44863233,36.1318533 C8.98788195,35.8273413 8.86122568,35.2069736 9.16573764,34.7462233 C9.2256054,34.6556387 9.33771896,34.4874101 9.49589066,34.2522931 C9.7588116,33.8614698 10.0553805,33.4253243 10.379424,32.954595 C11.3055077,31.6092982 12.2669752,30.2552304 13.2149148,28.9777837 C13.8086873,28.1775177 14.5120858,27.5451042 15.2998535,27.0685194 C16.1183114,26.5733676 16.9893575,26.2671911 17.8708179,26.112823 C18.4674097,26.0083433 18.9940204,25.9844786 19.4147714,26.0072905 C19.4417473,26.008753 19.464154,26.0101727 19.4842191,26.0116479 L24.945,26.0116479 C26.551108,26.0116479 27.728,26.9816808 27.728,28.5352699 C27.728,30.0929118 26.5620267,30.988 24.945,30.988 L21.216628,30.988 C21.1569152,31.5945773 21.7023069,31.9919971 22.565,31.9919971 L28.3604968,31.9919971 L33.5970286,28.573678 Z M24.4994893,9 C20.9095035,9 18,11.9098528 18,15.5010214 C18,19.0897734 20.910151,22 24.4994893,22 C28.0897121,22 31,19.0899103 31,15.5010214 C31,11.9097159 28.0903597,9 24.4994893,9 Z M24.4994893,7 C29.1949408,7 33,10.805158 33,15.5010214 C33,20.1945103 29.1942511,24 24.4994893,24 C19.8055698,24 16,20.1943313 16,15.5010214 C16,10.805337 19.8048802,7 24.4994893,7 Z" id="Combined-Shape" fill="#5A58A7" fill-rule="nonzero"></path>
    </g>
</svg>