<?xml version="1.0" encoding="UTF-8"?>
<svg width="48px" height="48px" viewBox="0 0 48 48" version="1.1" xmlns="http://www.w3.org/2000/svg" xmlns:xlink="http://www.w3.org/1999/xlink">
    <!-- Generator: Sketch 53.2 (72643) - https://sketchapp.com -->
    <title>Icons / icon_14</title>
    <desc>Created with Sketch.</desc>
    <g id="Icons-/-icon_14" stroke="none" stroke-width="1" fill="none" fill-rule="evenodd">
        <path d="M28.3543447,23.101668 L23.8269231,27.5447557 C23.7494656,27.6207704 23.6628322,27.6818195 23.5706359,27.7279026 C23.1734668,28.0482091 22.5904035,28.0239318 22.2214103,27.6550247 L19.8816296,25.3157891 C18.5983322,24.0294335 18.5010844,22.1842826 19.453847,20.7263226 L22.0330099,16.7781458 L19.6851984,14.4304969 L10.4303519,23.6864977 L24.4840461,37.7433556 C24.8830339,38.1424332 25.7541904,38.0667392 26.3745486,37.4462413 L26.7011301,37.1195863 L24.2907719,34.7092281 C23.899076,34.3175322 23.899076,33.6824678 24.2907719,33.2907719 C24.6824678,32.899076 25.3175322,32.899076 25.7092281,33.2907719 L28.1194267,35.7009705 L29.7007925,34.1192487 L27.2907719,31.7092281 C26.899076,31.3175322 26.899076,30.6824678 27.2907719,30.2907719 C27.6824678,29.899076 28.3175322,29.899076 28.7092281,30.2907719 L31.119089,32.7006328 L32.2005111,31.6189673 L29.2907719,28.7092281 C28.899076,28.3175322 28.899076,27.6824678 29.2907719,27.2907719 C29.6824678,26.899076 30.3175322,26.899076 30.7092281,27.2907719 L33.6080224,30.1895662 C34.077788,29.5885697 34.104931,28.8526136 33.7385992,28.4861993 L28.3543447,23.101668 Z M23.0786762,25.3669218 L27.5638108,20.8807775 C27.740538,20.7040105 27.9664087,20.6063235 28.1974524,20.5877183 C28.5380275,20.4878642 28.9207186,20.5707462 29.1913785,20.8363644 L35.0469468,26.5828589 L38.5558033,23.1401117 L29.516156,14.2688492 L24.2277878,17.4303419 L21.3136064,21.807282 C20.8668259,22.4780792 20.9075243,23.235723 21.4783278,23.7971038 L23.0786762,25.3669218 Z M35.9517118,28.5292713 C36.1732007,29.6377491 35.7854742,30.8944732 34.8710553,31.809098 L27.8051866,38.8765573 C26.4445736,40.2374766 24.3030103,40.4235552 23.0534081,39.1736716 L8.284681,24.4016198 C7.88975899,24.0066089 7.88977505,23.366259 8.28471689,22.9712679 L18.9698459,12.2848061 C19.3648443,11.8897584 20.005306,11.8897273 20.4003427,12.2847367 L23.577804,15.461978 L29.1483194,12.1318121 C29.543144,11.895778 30.0475113,11.9558734 30.3758227,12.2780693 L40.7084831,22.4182595 C41.1125364,22.8147864 41.112501,23.465715 40.7084046,23.8621979 L35.9517118,28.5292713 Z M31.2829937,9.71700628 C30.8870021,9.32101464 30.8870021,8.67898536 31.2829937,8.28299372 C31.6789854,7.88700209 32.3210146,7.88700209 32.7170063,8.28299372 L44.7170063,20.2829937 C45.1129979,20.6789854 45.1129979,21.3210146 44.7170063,21.7170063 C44.3210146,22.1129979 43.6789854,22.1129979 43.2829937,21.7170063 L31.2829937,9.71700628 Z M16.2829937,8.28299372 C16.6789854,7.88700209 17.3210146,7.88700209 17.7170063,8.28299372 C18.1129979,8.67898536 18.1129979,9.32101464 17.7170063,9.71700628 L4.71700628,22.7170063 C4.32101464,23.1129979 3.67898536,23.1129979 3.28299372,22.7170063 C2.88700209,22.3210146 2.88700209,21.6789854 3.28299372,21.2829937 L16.2829937,8.28299372 Z" id="Combined-Shape" fill="#5A58A7" fill-rule="nonzero"></path>
    </g>
</svg>