<?xml version="1.0" encoding="utf-8"?>
<!-- Generator: Adobe Illustrator 22.1.0, SVG Export Plug-In . SVG Version: 6.00 Build 0)  -->
<svg version="1.1" id="Layer_1" xmlns="http://www.w3.org/2000/svg" xmlns:xlink="http://www.w3.org/1999/xlink" x="0px" y="0px"
	 width="48px" height="48px" viewBox="0 0 48 48" style="enable-background:new 0 0 48 48;" xml:space="preserve">
<style type="text/css">
	.st0{fill:#5A58A7;}
</style>
<path class="st0" d="M22.8,26.4l9.3-14c0.3-0.5,0.9-0.6,1.4-0.3c0.5,0.3,0.6,0.9,0.3,1.4l-10,15c-0.4,0.5-1.1,0.6-1.5,0.2l-4-4
	c-0.4-0.4-0.4-1,0-1.4c0.4-0.4,1-0.4,1.4,0L22.8,26.4z M37.8,18.2c-0.2-0.5-0.9-0.8-1.4-0.5c-0.5,0.2-0.7,0.8-0.5,1.3
	c0.9,2.1,1.2,4.4,0.9,6.8c-0.7,5.8-5.5,10.5-11.3,11.2c-8.4,1-15.5-6.1-14.5-14.6c0.7-5.8,5.3-10.4,11.1-11.2
	c1.7-0.2,3.3-0.1,4.9,0.2c0.5,0.1,1-0.1,1.2-0.7l0,0c0.2-0.6-0.2-1.1-0.7-1.3c-1.9-0.4-3.8-0.5-5.8-0.2c-6.6,1-11.8,6.4-12.6,13
	C8,31.2,15,38.9,23.8,39c7.9,0.1,14.7-6.1,15.2-14C39.1,22.6,38.7,20.3,37.8,18.2z"/>
</svg>
