<?xml version="1.0" encoding="UTF-8"?>
<svg width="48px" height="48px" viewBox="0 0 48 48" version="1.1" xmlns="http://www.w3.org/2000/svg" xmlns:xlink="http://www.w3.org/1999/xlink">
    <!-- Generator: Sketch 53.2 (72643) - https://sketchapp.com -->
    <title>Icons / icon_21</title>
    <desc>Created with Sketch.</desc>
    <g id="Icons-/-icon_21" stroke="none" stroke-width="1" fill="none" fill-rule="evenodd">
        <path d="M17.3863186,12 C16.0968917,12 15,13.1975844 15,14.6982854 L15,33.3017146 C15,34.8017304 16.0972924,36 17.3863186,36 L30.6136814,36 C31.9039377,36 33,34.8025784 33,33.3017146 L33,14.6982854 C33,13.1967366 31.9043382,12 30.6136814,12 L17.3863186,12 Z M17.3863186,10 L30.6136814,10 C33.0502304,10 35,12.1296359 35,14.6982854 L35,33.3017146 C35,35.8695963 33.0499307,38 30.6136814,38 L17.3863186,38 C14.9515011,38 13,35.868914 13,33.3017146 L13,14.6982854 C13,12.130318 14.9512013,10 17.3863186,10 Z M30,20 C30.5522847,20 31,20.4477153 31,21 C31,21.5522847 30.5522847,22 30,22 L18,22 C17.4477153,22 17,21.5522847 17,21 C17,20.4477153 17.4477153,20 18,20 L30,20 Z M19.0016502,24.5 C19.8287969,24.5 20.5,25.172181 20.5,25.9991756 C20.5,26.8274369 19.8291793,27.5 19.0016502,27.5 C18.1711446,27.5 17.5,26.8294087 17.5,25.9991756 C17.5,25.1702091 18.1715269,24.5 19.0016502,24.5 Z M24.0016502,24.5 C24.8287969,24.5 25.5,25.172181 25.5,25.9991756 C25.5,26.8274369 24.8291793,27.5 24.0016502,27.5 C23.1711446,27.5 22.5,26.8294087 22.5,25.9991756 C22.5,25.1702091 23.1715269,24.5 24.0016502,24.5 Z M19.0016502,29.5 C19.8287969,29.5 20.5,30.172181 20.5,30.9991756 C20.5,31.8274369 19.8291793,32.5 19.0016502,32.5 C18.1711446,32.5 17.5,31.8294087 17.5,30.9991756 C17.5,30.1702091 18.1715269,29.5 19.0016502,29.5 Z M24.0016502,29.5 C24.8287969,29.5 25.5,30.172181 25.5,30.9991756 C25.5,31.8274369 24.8291793,32.5 24.0016502,32.5 C23.1711446,32.5 22.5,31.8294087 22.5,30.9991756 C22.5,30.1702091 23.1715269,29.5 24.0016502,29.5 Z M29.0016502,24.5 C29.8287969,24.5 30.5,25.172181 30.5,25.9991756 C30.5,26.8274369 29.8291793,27.5 29.0016502,27.5 C28.1711446,27.5 27.5,26.8294087 27.5,25.9991756 C27.5,25.1702091 28.1715269,24.5 29.0016502,24.5 Z M29.0016502,29.5 C29.8287969,29.5 30.5,30.172181 30.5,30.9991756 C30.5,31.8274369 29.8291793,32.5 29.0016502,32.5 C28.1711446,32.5 27.5,31.8294087 27.5,30.9991756 C27.5,30.1702091 28.1715269,29.5 29.0016502,29.5 Z" id="Combined-Shape" fill="#5A58A7" fill-rule="nonzero"></path>
    </g>
</svg>