<?xml version="1.0" encoding="UTF-8"?>
<svg width="154px" height="48px" viewBox="0 0 154 48" version="1.1" xmlns="http://www.w3.org/2000/svg" xmlns:xlink="http://www.w3.org/1999/xlink">
    <!-- Generator: Sketch 52.5 (67469) - http://www.bohemiancoding.com/sketch -->
    <title>Icons / logo / general</title>
    <desc>Created with Sketch.</desc>
    <g id="Icons-/-logo-/-general" stroke="none" stroke-width="1" fill="none" fill-rule="evenodd">
        <path d="M149.6602,45.4697 L148.2102,45.4697 L148.2102,39.9997 L149.7302,39.9997 L149.7302,43.2197 L152.2102,39.9997 L153.6602,39.9997 L153.6602,45.4697 L152.1392,45.4697 L152.1392,42.2497 L149.6602,45.4697 Z M150.9102,39.4007 L150.9302,39.4007 C150.8642,39.4057 150.7992,39.4077 150.7322,39.4067 C149.7172,39.3857 148.9092,38.5457 148.9302,37.5307 L150.0902,37.5307 C150.0912,37.9757 150.4522,38.3367 150.8982,38.3377 C151.3462,38.3387 151.7092,37.9777 151.7102,37.5307 L152.8802,37.5307 C152.8952,38.0477 152.6882,38.5467 152.3092,38.9007 C151.9252,39.2407 151.4242,39.4187 150.9102,39.4007 Z M144.8892,45.6197 C144.0962,45.6437 143.3222,45.3607 142.7302,44.8297 C142.1442,44.2957 141.8222,43.5327 141.8492,42.7407 C141.8402,41.9947 142.1242,41.2767 142.6392,40.7407 C143.1762,40.1807 143.9262,39.8777 144.7002,39.9097 C145.4302,39.8797 146.1322,40.1907 146.5992,40.7497 C147.0662,41.3117 147.3182,42.0207 147.3092,42.7497 L147.3092,43.1597 L143.3892,43.1597 C143.5502,43.9097 144.2202,44.2997 145.2202,44.2997 C145.8362,44.2967 146.4392,44.1317 146.9702,43.8207 L146.9702,45.0597 C146.3562,45.4677 145.6262,45.6637 144.8892,45.6197 Z M143.3892,42.1797 L145.7902,42.1797 C145.7902,42.1697 145.7902,42.1587 145.7892,42.1497 C145.7672,41.5357 145.2532,41.0577 144.6392,41.0797 C143.9932,41.0457 143.4382,41.5337 143.3892,42.1797 Z M139.4502,41.2997 L137.7402,41.3097 L137.7402,42.0797 C137.7392,42.7287 137.6552,43.3727 137.4902,43.9997 C137.3462,44.9017 136.5622,45.5617 135.6502,45.5497 C135.4512,45.5617 135.2532,45.5277 135.0702,45.4497 L135.0702,44.1907 C135.1762,44.2077 135.2842,44.2077 135.3892,44.1907 C135.7502,44.1907 135.9802,43.9807 136.0992,43.4907 C136.2392,42.8727 136.3002,42.2417 136.2802,41.6107 L136.2802,39.9997 L141.0002,39.9997 L141.0002,45.4697 L139.4502,45.4697 L139.4502,41.2997 Z M132.2692,45.6197 C131.4752,45.6437 130.7022,45.3607 130.1102,44.8297 C129.5242,44.2957 129.2022,43.5327 129.2302,42.7407 C129.2202,41.9947 129.5042,41.2767 130.0192,40.7407 C130.5562,40.1807 131.3062,39.8777 132.0802,39.9097 C132.8092,39.8797 133.5122,40.1907 133.9802,40.7497 C134.4472,41.3117 134.6982,42.0207 134.6902,42.7497 L134.6902,43.1597 L130.7692,43.1597 C130.9302,43.9097 131.5992,44.2997 132.5992,44.2997 C133.2162,44.2967 133.8192,44.1317 134.3492,43.8207 L134.3492,45.0597 C133.7362,45.4677 133.0062,45.6637 132.2692,45.6197 Z M130.7692,42.1797 L133.1702,42.1797 C133.1702,42.1697 133.1702,42.1587 133.1692,42.1497 C133.1472,41.5357 132.6332,41.0577 132.0192,41.0797 C131.3732,41.0457 130.8182,41.5337 130.7692,42.1797 Z M127.2502,45.4807 L125.7002,45.4807 L125.7002,41.2997 L124.0002,41.2997 L124.0002,40.0097 L128.9802,40.0097 L128.9802,41.2997 L127.2502,41.2997 L127.2502,45.4807 Z M123.4902,44.2807 C123.5942,44.2817 123.6972,44.2567 123.7902,44.2097 L123.7902,45.3497 C123.5472,45.5177 123.2552,45.5987 122.9602,45.5797 C122.4382,45.6407 121.9372,45.3577 121.7202,44.8797 C121.2252,45.3817 120.5442,45.6537 119.8402,45.6297 C119.7812,45.6357 119.7222,45.6377 119.6622,45.6377 C118.6512,45.6337 117.8362,44.8107 117.8402,43.7997 C117.8092,43.2737 118.0512,42.7677 118.4802,42.4597 C118.9242,42.1477 119.4572,41.9867 120.0002,41.9997 C120.5532,41.9657 121.1062,42.0687 121.6102,42.2997 L121.6102,42.1397 C121.6102,41.4807 121.1602,41.1397 120.1602,41.1397 C119.5782,41.1407 119.0082,41.2997 118.5102,41.5997 L118.5102,40.2897 C119.1312,39.9827 119.8172,39.8317 120.5102,39.8497 C121.1832,39.8167 121.8482,40.0177 122.3892,40.4197 C122.8692,40.8007 123.1372,41.3887 123.1102,41.9997 L123.1102,43.8607 C123.1102,44.1397 123.2402,44.2807 123.4902,44.2807 Z M121.5702,43.8607 L121.5402,43.3207 C121.2012,43.1007 120.8042,42.9897 120.4002,42.9997 C119.7502,42.9997 119.3302,43.2307 119.3302,43.7097 C119.3302,44.1907 119.7602,44.4197 120.3302,44.4197 C120.8092,44.4477 121.2732,44.2387 121.5702,43.8607 Z M112.3002,45.4807 L110.8402,45.4807 L110.8402,40.0097 L112.3602,40.0097 L113.9502,42.0497 L115.5502,40.0097 L117.0702,40.0097 L117.0702,45.4807 L115.6102,45.4807 L115.6102,42.0997 L114.2602,43.7997 L113.6392,43.7997 L112.3002,42.0997 L112.3002,45.4807 Z M105.6202,45.4807 L104.1802,45.4807 L104.1802,40.0097 L105.7002,40.0097 L105.7002,43.2307 L108.1802,40.0097 L109.6202,40.0097 L109.6202,45.4807 L108.0992,45.4807 L108.0992,42.2497 L105.6202,45.4807 Z M99.1702,45.4807 L97.6302,45.4807 L97.6302,40.0097 L99.1702,40.0097 L99.1702,42.0307 L101.4202,42.0307 L101.4202,40.0097 L102.9602,40.0097 L102.9602,45.4807 L101.4202,45.4807 L101.4202,43.3297 L99.1702,43.3297 L99.1702,45.4807 Z M92.4102,45.4807 L90.9602,45.4807 L90.9602,40.0097 L92.4902,40.0097 L92.4902,43.2307 L94.9602,40.0097 L96.4102,40.0097 L96.4102,45.4807 L94.8892,45.4807 L94.8892,42.2497 L92.4102,45.4807 Z M87.5502,39.8297 L87.5502,39.8607 C88.2762,39.8677 88.9582,40.2157 89.3892,40.7997 C89.8752,41.3527 90.1352,42.0657 90.1202,42.7997 C90.1292,43.5327 89.8702,44.2447 89.3892,44.7997 C88.9312,45.3367 88.2562,45.6377 87.5502,45.6197 C86.8542,45.6567 86.1842,45.3547 85.7502,44.8097 L85.7502,47.6597 L84.2002,47.6597 L84.2002,39.9997 L85.7502,39.9997 L85.7502,40.6397 C86.1802,40.0897 86.8532,39.7867 87.5502,39.8297 Z M87.1102,41.2097 L87.1102,41.1797 C86.5402,41.1827 86.0182,41.4967 85.7502,41.9997 L85.7502,43.4597 C86.0192,43.9597 86.5422,44.2717 87.1102,44.2697 C87.5102,44.2827 87.8962,44.1217 88.1702,43.8297 C88.7222,43.2077 88.7222,42.2717 88.1702,41.6507 C87.8962,41.3577 87.5102,41.1977 87.1102,41.2097 Z M79.2602,45.4807 L77.7202,45.4807 L77.7202,40.0097 L82.9902,40.0097 L82.9902,45.4807 L81.4402,45.4807 L81.4402,41.2997 L79.2602,41.2997 L79.2602,45.4807 Z M71.5502,46.8607 L70.1402,46.8497 L70.1402,44.1697 L70.8402,44.1697 C71.3312,43.2097 71.5592,42.1367 71.5002,41.0597 L71.5002,39.9997 L76.1002,39.9997 L76.1002,44.1797 L77.0002,44.1797 L77.0002,46.8607 L75.5002,46.8607 L75.5002,45.4697 L71.5502,45.4697 L71.5502,46.8607 Z M72.3502,44.1797 L74.5402,44.1797 L74.5402,41.2997 L72.8302,41.2997 C72.8562,42.2817 72.6932,43.2597 72.3502,44.1797 Z M67.3002,45.6197 C66.5052,45.6437 65.7322,45.3607 65.1402,44.8297 C64.5542,44.2957 64.2322,43.5327 64.2602,42.7407 C64.2502,41.9947 64.5342,41.2767 65.0502,40.7407 C65.5862,40.1807 66.3362,39.8777 67.1102,39.9097 C67.8392,39.8797 68.5412,40.1907 69.0102,40.7497 C69.4772,41.3117 69.7282,42.0207 69.7202,42.7497 L69.7202,43.1597 L65.8002,43.1597 C65.9602,43.9097 66.6302,44.2997 67.6302,44.2997 C68.2452,44.2967 68.8492,44.1317 69.3802,43.8207 L69.3802,45.0597 C68.7662,45.4677 68.0352,45.6637 67.3002,45.6197 Z M65.8002,42.1797 L68.1502,42.1797 C68.1502,42.1697 68.1502,42.1587 68.1492,42.1497 C68.1272,41.5357 67.6132,41.0577 67.0002,41.0797 C66.3722,41.0737 65.8472,41.5547 65.8002,42.1797 Z M61.2102,39.8297 L61.2102,39.8607 C61.9402,39.8647 62.6252,40.2127 63.0602,40.7997 C63.5442,41.3527 63.8052,42.0657 63.7902,42.7997 C63.7992,43.5327 63.5392,44.2447 63.0602,44.7997 C62.6012,45.3367 61.9262,45.6377 61.2202,45.6197 C60.5242,45.6567 59.8542,45.3547 59.4202,44.8097 L59.4202,47.6597 L57.8702,47.6597 L57.8702,39.9997 L59.4102,39.9997 L59.4102,40.6397 C59.8402,40.0897 60.5132,39.7867 61.2102,39.8297 Z M60.7702,41.2097 L60.7702,41.1797 C60.2002,41.1827 59.6782,41.4967 59.4102,41.9997 L59.4102,43.4597 C59.6792,43.9597 60.2022,44.2717 60.7702,44.2697 C61.1702,44.2827 61.5562,44.1217 61.8302,43.8297 C62.3832,43.2077 62.3832,42.2717 61.8302,41.6507 C61.5562,41.3577 61.1702,41.1977 60.7702,41.2097 Z M52.9302,45.4807 L51.3802,45.4807 L51.3802,40.0097 L56.6502,40.0097 L56.6502,45.4807 L55.1102,45.4807 L55.1102,41.2997 L52.9302,41.2997 L52.9302,45.4807 Z M43.6302,45.4807 L41.8902,45.4697 L43.3602,43.3897 C42.6702,43.1687 42.2222,42.5017 42.2802,41.7807 C42.2802,40.7597 42.9902,39.9997 44.4302,39.9997 L47.3602,39.9997 L47.3602,45.4807 L45.8202,45.4807 L45.8202,43.6697 L44.8902,43.6697 L43.6302,45.4807 Z M44.6802,42.5497 L45.8202,42.5497 L45.8202,41.2097 L44.6802,41.2097 C44.1702,41.2097 43.8602,41.4497 43.8602,41.8797 C43.8602,42.3097 44.1602,42.5497 44.6802,42.5497 Z M39.6202,41.2997 L37.9002,41.3097 L37.9002,42.0797 C37.8992,42.7287 37.8152,43.3727 37.6502,43.9997 C37.5062,44.9017 36.7232,45.5617 35.8102,45.5497 C35.6112,45.5617 35.4132,45.5277 35.2302,45.4497 L35.2302,44.1907 C35.3362,44.2077 35.4442,44.2077 35.5502,44.1907 C35.9102,44.1907 36.1402,43.9807 36.2602,43.4907 C36.3992,42.8727 36.4592,42.2417 36.4402,41.6107 L36.4402,39.9997 L41.1702,39.9997 L41.1702,45.4697 L39.6202,45.4697 L39.6202,41.2997 Z M29.5702,46.8607 L28.1402,46.8497 L28.1402,44.1697 L28.8402,44.1697 C29.3312,43.2097 29.5592,42.1367 29.5002,41.0597 L29.5002,39.9997 L34.1002,39.9997 L34.1002,44.1797 L35.0002,44.1797 L35.0002,46.8607 L33.5102,46.8607 L33.5102,45.4697 L29.5702,45.4697 L29.5702,46.8607 Z M30.3702,44.1797 L32.5602,44.1797 L32.5602,41.2997 L30.8502,41.2997 C30.8762,42.2817 30.7132,43.2597 30.3702,44.1797 Z M21.1002,45.4807 L19.5502,45.4807 L19.5502,40.0097 L21.1002,40.0097 L21.1002,41.9997 L22.9802,40.0097 L24.8802,40.0097 L22.5002,42.4697 L25.2502,45.4807 L23.2602,45.4807 L21.1002,43.1197 L21.1002,45.4807 Z M14.5502,45.4807 L13.0002,45.4807 L13.0002,40.0097 L14.5502,40.0097 L14.5502,42.0307 L16.8002,42.0307 L16.8002,40.0097 L18.3402,40.0097 L18.3402,45.4807 L16.8002,45.4807 L16.8002,43.3297 L14.5502,43.3297 L14.5502,45.4807 Z M11.9202,44.2807 L11.9102,44.2807 C12.0112,44.2797 12.1102,44.2557 12.2002,44.2097 L12.2002,45.3497 C11.9572,45.5177 11.6642,45.5987 11.3702,45.5797 C10.8482,45.6407 10.3482,45.3577 10.1302,44.8797 C9.6362,45.3817 8.9542,45.6537 8.2502,45.6297 C8.1912,45.6357 8.1312,45.6377 8.0722,45.6377 C7.0612,45.6337 6.2452,44.8107 6.2502,43.7997 C6.2202,43.2737 6.4612,42.7677 6.8902,42.4597 C7.3342,42.1477 7.8672,41.9867 8.4102,41.9997 C8.9702,41.9617 9.5302,42.0657 10.0402,42.2997 L10.0402,42.1397 C10.0402,41.4807 9.5902,41.1397 8.5902,41.1397 C8.0082,41.1407 7.4382,41.2997 6.9402,41.5997 L6.9402,40.2897 C7.5612,39.9827 8.2472,39.8317 8.9402,39.8497 C9.6142,39.8167 10.2782,40.0177 10.8202,40.4197 C11.2992,40.8007 11.5672,41.3887 11.5402,41.9997 L11.5402,43.8607 C11.5402,44.1397 11.6702,44.2807 11.9202,44.2807 Z M10.0002,43.8607 L9.9902,43.3207 C9.6512,43.1007 9.2532,42.9897 8.8502,42.9997 C8.2002,42.9997 7.7602,43.2307 7.7602,43.7097 C7.7602,44.1907 8.1902,44.4197 8.7602,44.4197 C9.2402,44.4477 9.7032,44.2387 10.0002,43.8607 Z M3.4502,40.3097 L3.4402,40.3607 C4.0832,40.3257 4.7122,40.5577 5.1802,40.9997 C5.6522,41.5027 5.8852,42.1837 5.8202,42.8697 C5.8382,43.6217 5.5412,44.3477 5.0002,44.8697 C4.4662,45.3897 3.7452,45.6747 3.0002,45.6597 C2.1422,45.7007 1.3172,45.3297 0.7802,44.6597 C0.2282,43.9087 0.0002,42.9997 0.0002,42.0597 C0.0002,40.9997 0.3962,39.6917 1.3502,38.9597 C1.8372,38.6067 2.3772,38.3327 2.9502,38.1507 C3.7112,37.9077 4.4902,37.7277 5.2802,37.6107 L5.2802,38.9907 L4.7002,39.0897 L4.1302,39.1907 L3.6102,39.2997 C3.2912,39.3577 2.9802,39.4487 2.6802,39.5707 C2.4112,39.6667 2.1682,39.8237 1.9702,40.0307 C1.6442,40.3487 1.4572,40.7837 1.4502,41.2407 C1.9312,40.6307 2.6742,40.2847 3.4502,40.3097 Z M3.0002,44.3097 C3.0172,44.3097 3.0352,44.3087 3.0532,44.3077 C3.7802,44.2637 4.3342,43.6377 4.2902,42.9097 C4.2922,42.8627 4.2922,42.8137 4.2892,42.7657 C4.2432,42.0987 3.6662,41.5947 3.0002,41.6397 C2.4032,41.6667 1.8542,41.9747 1.5202,42.4697 C1.5302,43.6507 2.0802,44.3097 3.0002,44.3097 Z M33.6011,21.9995 C30.5411,22.0175 27.7901,21.1465 25.5071,19.1735 C22.9751,16.9855 21.9751,14.1375 22.0001,10.9095 C22.0221,8.2315 22.7581,5.7955 24.6031,3.7375 C26.2581,1.8925 28.3641,0.7945 30.8221,0.2955 C33.9091,-0.3315 36.8801,0.0205 39.6141,1.5285 C43.0621,3.4315 44.7651,6.4125 44.9751,10.2075 C45.1601,13.5455 44.3341,16.5525 41.7751,18.9515 C39.5041,21.0805 36.7191,21.9675 33.6011,21.9995 Z M33.6751,5.3965 C31.0831,5.4585 29.2641,6.8055 28.5691,9.0235 C28.1421,10.3905 28.1691,11.7465 28.5951,13.1135 C29.2141,15.0985 30.5851,16.3175 32.6731,16.6355 C34.7881,16.9565 36.6051,16.2775 37.7611,14.4835 C39.0761,12.4405 39.1011,10.2585 38.0521,8.0975 C37.1541,6.2465 35.5541,5.4185 33.6751,5.3965 Z M107.9762,7.1885 C107.8142,6.1555 107.0682,5.5755 106.1152,5.2335 C104.4792,4.6455 102.7862,4.6135 101.0752,4.7525 C99.4942,4.8805 97.9652,5.1945 96.4912,5.9545 C96.2182,4.4725 95.9552,3.0515 95.6892,1.6145 C96.9862,0.9825 98.2882,0.6305 99.6262,0.3935 C102.4882,-0.1115 105.3562,-0.1905 108.1922,0.5125 C111.1832,1.2545 113.2832,2.9485 113.8632,6.0645 C114.0062,6.8345 114.0002,7.9995 114.0002,7.9995 L114.0002,14.9995 C114.0002,15.3035 114.0382,15.9535 114.0572,16.2565 C114.1632,17.8745 114.3112,18.0325 116.0002,18.2775 L116.0002,21.6085 C114.3332,22.0205 112.6212,22.2375 110.9262,21.4555 C109.9732,21.0165 109.5342,20.2035 109.3252,19.2435 C109.2832,19.0515 109.2752,18.8525 109.2402,18.5655 C107.1942,21.4445 104.2662,22.1515 101.0482,21.9745 C97.4422,21.7765 94.6742,19.4065 94.1642,16.6105 C93.3352,12.0605 95.6802,8.6615 100.3602,7.9755 C103.3192,7.5415 104.1672,7.7255 107.9922,8.9995 C107.9922,8.3845 108.0682,7.7745 107.9762,7.1885 Z M107.8752,12.9745 C106.8932,12.3135 105.7772,11.9665 104.6102,11.8215 C103.3972,11.6705 102.2002,11.7495 101.1712,12.5275 C100.2272,13.2415 99.8702,14.3755 100.2162,15.5445 C100.4812,16.4435 101.4172,17.1475 102.5202,17.2495 C103.5832,17.3495 104.6142,17.1915 105.5962,16.7825 C107.3582,16.0475 108.0482,14.8875 107.8752,12.9745 Z M80,13 L77,13 L77,22 L71,21.981 L71,-5.42101086e-20 L77,-5.42101086e-20 L77,8 C78.399,7.994 79.782,8.287 81.042,7.848 C82.651,7.287 83.777,6.18 84.23,4.523 C84.628,3.071 85,2 85,-5.42101086e-20 L90.796,-5.42101086e-20 C90.918,4.52 90.04,8.501 85.815,10.982 C85.981,11.298 86.113,11.575 86.268,11.837 C88.002,14.801 89.746,17.758 91.472,20.728 C91.68,21.086 91.796,21.501 92,22 L85.493,22 C83.846,19.073 82.166,16.088 80.49,13.11 L80,13 Z M61.0645,-5.42101086e-20 L67.0005,-5.42101086e-20 L67.0005,22 L61.0065,22 L61.0065,14.945 C59.9035,15.2 58.8935,15.518 57.8605,15.658 C55.1395,16.026 52.5485,15.691 50.3295,13.814 C48.6135,12.362 47.6085,10.415 47.3045,8.206 C47.0005,6 47.1065,2.777 47.0185,0.006 L53.0005,-5.42101086e-20 L53.0005,1 L53.0005,6 C53.0005,8.355 55.0755,10.213 57.3345,10.246 C58.7295,10.266 59.5435,9.926 60.9935,9.006 L61.0645,-5.42101086e-20 Z M13,22 L7,22 L7,6 L0,6 L0,-5.42101086e-20 L20,-5.42101086e-20 L20,6 L13,6 L13,22 Z" id="Combined-Shape" fill="#231F20"></path>
    </g>
</svg>